<svg xmlns="http://www.w3.org/2000/svg" width="60" height="60" viewBox="0 0 60 60">
  <g id="Group_4" data-name="Group 4" transform="translate(126 -298)">
    <g id="Group_3" data-name="Group 3" transform="translate(81)">
      <rect id="Rectangle_1" data-name="Rectangle 1" width="60" height="60" transform="translate(-207 298)" fill="none"/>
    </g>
    <g id="mail-ios" transform="translate(-131.496 -6113.69)">
      <path id="Path_3" data-name="Path 3" d="M113.113,6579.71a1.834,1.834,0,0,0-.686.128l4.321,4.449,4.369,4.529.08.1.128.128.128.127.255.271,3.747,3.843a3.678,3.678,0,0,0,.385.277,1.452,1.452,0,0,0,.582.182,1.374,1.374,0,0,0,.641-.151,2.433,2.433,0,0,0,.385-.307l4.337-4.481,4.385-4.513,4.226-4.353a1.851,1.851,0,0,0-.893-.223H113.113Zm-1.324.542a2.513,2.513,0,0,0-.75,1.834v14.606a2.576,2.576,0,0,0,.51,1.563l.606-.574,4.513-4.385,4-3.875-.08-.1-4.385-4.513-4.385-4.529Zm29.181.144-4.273,4.417-4.369,4.513-.08.08,4.162,4.034,4.513,4.385.271.256a2.625,2.625,0,0,0,.383-1.388v-14.606A2.563,2.563,0,0,0,140.971,6580.4Zm-19.789,9.552-3.986,3.875-4.529,4.385-.574.559a1.879,1.879,0,0,0,1.021.319H139.5a1.9,1.9,0,0,0,1.2-.447l-.287-.287-4.529-4.385-4.162-4.019-3.747,3.859a4.383,4.383,0,0,1-.536.375,2.408,2.408,0,0,1-1.019.267,2.452,2.452,0,0,1-1.013-.3,1.967,1.967,0,0,1-.429-.311Z" transform="translate(-90.544 -148.02)"/>
    </g>
  </g>
</svg>
