<svg xmlns="http://www.w3.org/2000/svg" width="60" height="60" viewBox="0 0 60 60">
  <g id="Group_2" data-name="Group 2" transform="translate(207 -298)">
    <rect id="Rectangle_1" data-name="Rectangle 1" width="60" height="60" transform="translate(-207 298)" fill="none"/>
    <g id="twitter_1_" data-name="twitter (1)" transform="translate(-192 315.597)">
      <path id="Path_1" data-name="Path 1" d="M20.65.006V0H22.1l.529.106a5.664,5.664,0,0,1,.961.27,6.839,6.839,0,0,1,.836.39,7.95,7.95,0,0,1,.733.454,4.511,4.511,0,0,1,.585.485.812.812,0,0,0,.8.134,10.7,10.7,0,0,0,1.17-.348q.627-.223,1.24-.5T29.7.635l.139-.084.006-.008.028-.014L29.9.516,29.93.5l.028-.014.006-.008.008-.006L29.98.468,29.986.46l.028-.008.028-.006-.006.042-.008.042-.014.042L30,.613l-.014.028-.014.028-.014.042a.97.97,0,0,0-.028.111,4.675,4.675,0,0,1-.265.557,6.97,6.97,0,0,1-.627.989,4.864,4.864,0,0,1-.674.758q-.3.259-.4.362a1.2,1.2,0,0,1-.237.2l-.139.092-.028.014-.028.014-.006.008-.008.006-.008.006-.006.008-.028.014-.028.014-.006.008-.008.006-.008.006-.006.008-.006.008-.008.006-.008.006-.006.008h.139l.78-.167a13.963,13.963,0,0,0,1.491-.4l.752-.251.084-.028.042-.014.028-.014.028-.014.028-.014L30.794,3l.056-.008.056-.006v.056l-.014.006-.014.008-.006.008-.008.006-.008.006-.006.008-.006.008-.008.006-.008.006-.006.008-.006.008-.008.006-.014.028-.014.028-.008.006-.354.474a3.917,3.917,0,0,1-.376.474q-.028.008-.078.084a7.986,7.986,0,0,1-.591.621,14.027,14.027,0,0,1-1.065.967,1.32,1.32,0,0,0-.529,1.048q-.008.619-.064,1.4t-.209,1.686a20.1,20.1,0,0,1-.474,2.048,18.622,18.622,0,0,1-.78,2.229,17.37,17.37,0,0,1-.961,1.951q-.5.864-.92,1.463t-.85,1.129q-.432.53-1.092,1.193t-.725.725q-.064.061-.546.457t-1.031.8a11.926,11.926,0,0,1-1.009.66q-.46.265-1.109.6a13.2,13.2,0,0,1-1.4.635q-.752.293-1.588.543a14.509,14.509,0,0,1-1.616.39q-.78.139-1.77.237l-.989.1v.014H8.834V25.1L8.6,25.081q-.237-.014-.39-.028T7.051,24.9q-1-.139-1.575-.279t-1.7-.529A16.54,16.54,0,0,1,1.845,23.3q-.8-.4-1-.5T.39,22.545l-.251-.153-.006-.008-.008-.006-.008-.006-.006-.008L.084,22.35l-.028-.014L.05,22.328l-.008-.006-.008-.006-.006-.008L.022,22.3l-.008-.006H0v-.056l.028.006.028.008.125.014q.125.014.683.042t1.184,0a12.462,12.462,0,0,0,1.282-.125,14.443,14.443,0,0,0,1.547-.334,11.428,11.428,0,0,0,1.639-.563q.744-.329,1.059-.49a10.311,10.311,0,0,0,.953-.591l.641-.432.006-.008.008-.006.008-.006.006-.008.006-.008.008-.006.008-.006.006-.008.028-.008L9.28,19.7l.006-.028.008-.028.008-.006.006-.008-.223-.014-.432-.028A4.189,4.189,0,0,1,8,19.466a6.286,6.286,0,0,1-.961-.334,7.412,7.412,0,0,1-1-.529,4.937,4.937,0,0,1-.705-.51q-.215-.2-.557-.569a5.638,5.638,0,0,1-.591-.761,6.836,6.836,0,0,1-.479-.9l-.231-.507-.014-.042-.014-.042-.008-.028-.006-.028.042.006.042.008.307.042a6.812,6.812,0,0,0,.961.028,7.444,7.444,0,0,0,.906-.056q.251-.042.307-.056l.056-.014.07-.014.07-.014.006-.008.008-.006.008-.006.006-.008L6.159,15.1,6.1,15.09l-.056-.014-.056-.014-.056-.014q-.056-.014-.2-.056t-.752-.307a5.754,5.754,0,0,1-.975-.516,6.736,6.736,0,0,1-.691-.549,7.887,7.887,0,0,1-.716-.775,5.574,5.574,0,0,1-.7-1.1,6.7,6.7,0,0,1-.46-1.2,6.469,6.469,0,0,1-.2-1.157L1.2,8.806l.028.006.028.008.028.014.028.014.028.014.028.014.432.2a5.45,5.45,0,0,0,1.073.334q.641.139.766.153l.125.014h.251l-.006-.008L4,9.559l-.008-.006-.006-.008L3.98,9.536l-.008-.006-.008-.006-.006-.008L3.929,9.5,3.9,9.489,3.9,9.481l-.008-.006L3.879,9.47l-.006-.008-.028-.014-.028-.014-.006-.008-.24-.178a3.655,3.655,0,0,1-.479-.454q-.251-.279-.5-.585a4.519,4.519,0,0,1-.446-.655,7.939,7.939,0,0,1-.412-.886,6.291,6.291,0,0,1-.326-1.078,6.139,6.139,0,0,1-.125-1.073,6.756,6.756,0,0,1,.028-.906,5.919,5.919,0,0,1,.167-.85,6.623,6.623,0,0,1,.362-1l.237-.529.014-.042L2.1,1.143l.008-.006.006-.008.006-.008.008-.006.008.006.006.008.006.008.008.006.008.006.006.008.006.008.008.006L2.2,1.2l.014.028.008.006.006.008.376.418q.376.418.892.934a5.241,5.241,0,0,0,.571.535.408.408,0,0,1,.139.128,5.689,5.689,0,0,0,.557.493q.474.39,1.24.906t1.7,1.017a16.587,16.587,0,0,0,2.006.906q1.073.4,1.5.529t1.477.32q1.045.2,1.575.251t.725.064l.2.006-.006-.042-.008-.042-.056-.348a6.549,6.549,0,0,1-.056-.975,6.4,6.4,0,0,1,.1-1.157,6.851,6.851,0,0,1,.293-1.073,5.731,5.731,0,0,1,.382-.872,8.581,8.581,0,0,1,.5-.744,6.009,6.009,0,0,1,.794-.864A5.861,5.861,0,0,1,18.24.836,7.246,7.246,0,0,1,19.4.307,5.389,5.389,0,0,1,20.288.07,3.1,3.1,0,0,0,20.65.006Z" stroke="#000" stroke-width="0.5"/>
    </g>
  </g>
</svg>
